<svg xmlns="http://www.w3.org/2000/svg" width="512" height="512" viewBox="0 0 512 512">
<defs><linearGradient id="bg" x1="0" y1="0" x2="0" y2="1"><stop offset="0" stop-color="#ff9e4d"/><stop offset="1" stop-color="#e05a14"/></linearGradient></defs>
<rect x="26" y="26" width="460" height="460" rx="103" fill="url(#bg)"/>
<g>
 <path d="M236 118 L256 74 L276 118 M214 130 L226 92 M298 130 L286 92" stroke="#1e3326" stroke-width="26" stroke-linecap="round" fill="none"/>
 <ellipse cx="256" cy="280" rx="150" ry="160" fill="#fff" opacity="0.96"/>
 <ellipse cx="256" cy="280" rx="150" ry="160" fill="none" stroke="#c2531a" stroke-width="14"/>
 <path d="M106 280 a150 160 0 0 1 300 0 L106 280 Z" fill="#c2531a" opacity="0.12"/>
 <ellipse cx="256" cy="330" rx="92" ry="98" fill="#f6efe3"/>
 <circle cx="205" cy="218" r="17" fill="#10131f"/>
 <path d="M288 214 q22 -14 44 0" stroke="#10131f" stroke-width="13" stroke-linecap="round" fill="none"/>
 <path d="M232 252 q24 22 48 0 q-10 26 -24 26 q-14 0 -24 -26 Z" fill="#f4c542"/>
</g>
</svg>
